#tb 0: 1/44100
#media_type 0: audio
#codec_id 0: pcm_s16le
#sample_rate 0: 44100
#channel_layout_name 0: stereo
0,          0,          0,     4096,    16384, 0x00000000
0,       4096,       4096,     4096,    16384, 0x00000000
0,       8192,       8192,     4096,    16384, 0x00000000
0,      12288,      12288,     4096,    16384, 0x00000000
0,      16384,      16384,     4096,    16384, 0x0553c88b
0,      20480,      20480,     4096,    16384, 0xacdd6b04
0,      24576,      24576,     4096,    16384, 0xfc9f78c1
0,      28672,      28672,     4096,    16384, 0x99473f4a
0,      32768,      32768,     4096,    16384, 0xe477c657
0,      36864,      36864,     4096,    16384, 0xea2bc1aa
0,      40960,      40960,     4096,    16384, 0xec5a01fb
0,      45056,      45056,     4096,    16384, 0xd392833d
0,      49152,      49152,     4096,    16384, 0xa545badf
0,      53248,      53248,     4096,    16384, 0xe82cb4c1
0,      57344,      57344,     4096,    16384, 0xb248fa9f
0,      61440,      61440,     4096,    16384, 0x460db6a9
0,      65536,      65536,     4096,    16384, 0x37a9e235
0,      69632,      69632,     4096,    16384, 0x61511232
0,      73728,      73728,     4096,    16384, 0xe3ef98c1
0,      77824,      77824,     4096,    16384, 0xee1ee4a3
0,      81920,      81920,     4096,    16384, 0x311620e6
0,      86016,      86016,     4096,    16384, 0x7d0e78a5
0,      90112,      90112,     4096,    16384, 0x446ba7a4
0,      94208,      94208,     4096,    16384, 0x299b2e17
0,      98304,      98304,     4096,    16384, 0xc51affa2
0,     102400,     102400,     4096,    16384, 0xb4970fcf
0,     106496,     106496,     4096,    16384, 0xe48af9fc
0,     110592,     110592,     4096,    16384, 0xc2beffbb
0,     114688,     114688,     4096,    16384, 0xb9d99627
0,     118784,     118784,     4096,    16384, 0xb65a2086
0,     122880,     122880,     4096,    16384, 0x6386714b
0,     126976,     126976,     4096,    16384, 0x92a3171e
0,     131072,     131072,     4096,    16384, 0x78bad1e2
0,     135168,     135168,     4096,    16384, 0x63301330
0,     139264,     139264,     4096,    16384, 0xd663b943
0,     143360,     143360,     4096,    16384, 0xdcafe377
0,     147456,     147456,     4096,    16384, 0xfb2cd701
0,     151552,     151552,     4096,    16384, 0x91c30201
0,     155648,     155648,     4096,    16384, 0xf23da341
0,     159744,     159744,     4096,    16384, 0xe8d5fa0a
0,     163840,     163840,     4096,    16384, 0x519bdfef
0,     167936,     167936,     4096,    16384, 0xf2fcd803
0,     172032,     172032,     4096,    16384, 0xd5ceccbc
0,     176128,     176128,     4096,    16384, 0xd48ada43
0,     180224,     180224,     4096,    16384, 0x5a4ac40f
0,     184320,     184320,     4096,    16384, 0x29db868a
0,     188416,     188416,     4096,    16384, 0xa2a0002b
0,     192512,     192512,     4096,    16384, 0xbb0bd9f6
0,     196608,     196608,     4096,    16384, 0x338dffa4
0,     200704,     200704,     4096,    16384, 0x970b71f5
0,     204800,     204800,     4096,    16384, 0x0521c397
0,     208896,     208896,     4096,    16384, 0xff5ec9de
0,     212992,     212992,     4096,    16384, 0x5a4ac40f
0,     217088,     217088,     4096,    16384, 0x29db868a
0,     221184,     221184,     4096,    16384, 0xa2a0002b
0,     225280,     225280,     4096,    16384, 0xbb0bd9f6
0,     229376,     229376,     4096,    16384, 0x338dffa4
0,     233472,     233472,     4096,    16384, 0x970b71f5
0,     237568,     237568,     4096,    16384, 0x0521c397
0,     241664,     241664,     4096,    16384, 0xff5ec9de
0,     245760,     245760,     4096,    16384, 0x5a4ac40f
0,     249856,     249856,     4096,    16384, 0x29db868a
0,     253952,     253952,     4096,    16384, 0xa2a0002b
0,     258048,     258048,     4096,    16384, 0xbb0bd9f6
0,     262144,     262144,     2456,     9824, 0xb3f84641
